<?xml version="1.0" encoding="UTF-8" standalone="no"?><!DOCTYPE svg PUBLIC "-//W3C//DTD SVG 1.1//EN" "http://www.w3.org/Graphics/SVG/1.1/DTD/svg11.dtd"><svg width="100%" height="100%" viewBox="0 0 2134 1535" version="1.1" xmlns="http://www.w3.org/2000/svg" xmlns:xlink="http://www.w3.org/1999/xlink" xml:space="preserve" xmlns:serif="http://www.serif.com/" style="fill-rule:evenodd;clip-rule:evenodd;stroke-linejoin:round;stroke-miterlimit:2;"><path d="M1897,142.35l-29.95,-0c-10.313,-61.608 -64.009,-108.713 -128.5,-108.713c-22.825,0 -44.759,5.834 -64.096,16.796c-30.704,-27.408 -70.9,-43.116 -112.617,-43.116c-50.996,-0 -98.4,22.845 -130.112,61.241c-20.513,-8.608 -42.567,-13.162 -65.209,-13.162c-7.629,-0 -15.254,0.512 -22.8,1.541c-30.745,-27.362 -70.67,-42.741 -112.229,-42.741c-39.941,-0 -77.741,13.854 -107.733,38.816c-45.096,-34.383 -99.925,-53.012 -157.517,-53.012c-45.896,-0 -90.129,11.829 -129.412,34.421c-29.171,-22.113 -65.117,-34.421 -102.075,-34.421c-61.384,-0 -116.271,32.517 -145.963,83.8c-28.895,-10.708 -59.708,-16.279 -90.725,-16.279c-81.262,-0 -158.137,38.65 -207.045,102.529c-15.713,-4.479 -32.463,-5.629 -48.78,-3.179c-18,-15.854 -41.333,-24.863 -65.85,-24.863c-23.916,0 -46.654,8.479 -64.533,23.7c-62.1,2.479 -111.85,53.784 -111.85,116.484c0,59.866 45.35,109.337 103.5,115.875c-0.162,1.258 -0.308,2.525 -0.442,3.791c-52.887,49.242 -82.929,117.871 -82.929,190.571c0,59.171 19.892,115.858 56.409,161.804c-8.638,26.192 -13.009,53.517 -13.009,81.492c0,128.35 93.446,237.067 219.046,257.112c9.687,8.125 19.742,15.971 30.071,23.463l-0,35.875c-0,71.062 40.212,132.883 99.054,163.996l-0,184.871c-0,18.658 15.117,33.779 33.779,33.779l105.163,-0c18.658,-0 33.775,-15.117 33.775,-33.779l-0,-184.83c3.062,-1.608 6.062,-3.32 9.02,-5.1c2.946,1.771 5.946,3.446 8.984,5.046l-0,184.884c-0,18.658 15.116,33.779 33.779,33.779l105.221,-0c18.658,-0 33.779,-15.117 33.779,-33.779l-0,-184.742c25.379,-13.333 47.512,-32.483 64.442,-56.163c35.666,16.246 74.65,24.871 114.716,24.871c48.396,0 94.717,-12.212 135.996,-35.625c17.533,28.571 42.396,51.509 71.583,66.854l0,184.805c0,18.658 15.117,33.779 33.78,33.779l105.166,-0c18.659,-0 33.779,-15.117 33.779,-33.779l0,-184.592c3.142,-1.642 6.234,-3.379 9.263,-5.192c2.883,1.721 5.808,3.354 8.775,4.917l-0,184.867c-0,18.658 15.117,33.779 33.779,33.779l105.188,-0c18.658,-0 33.779,-15.117 33.779,-33.779l-0,-184.871c58.837,-31.113 99.05,-92.934 99.05,-163.996l-0,-7.392c83.025,-43.591 139.812,-130.621 139.812,-230.721c0,-8.187 -0.404,-16.475 -1.216,-24.795c34.866,-31.796 55.17,-77.067 55.17,-124.775c0,-41.709 -15.67,-82.125 -43.425,-112.98c-0.575,-12.191 -1.591,-24.37 -2.975,-36.487l125.142,-0c130.317,-0 236.342,-106.021 236.342,-236.338c-0.013,-130.312 -106.034,-236.337 -236.35,-236.337Zm-1380.12,1324.91l-37.613,0l0,-130.633c6.184,0.629 12.459,0.95 18.804,0.95c6.346,0 12.6,-0.437 18.809,-1.058l-0,130.741Zm190.783,0l-37.675,0l0,-130.687c6.25,0.642 12.542,1.008 18.867,1.008c6.333,0 12.604,-0.346 18.808,-0.971l0,130.65Zm-18.817,-197.237c-14.516,-0 -28.52,-2.633 -41.662,-7.604c7.529,-10.188 14.092,-21.184 19.458,-32.925c7.888,1.133 15.854,1.704 23.859,1.704c21.22,-0 41.87,-3.896 61.487,-11.592l23.642,0c2.016,1.709 4.096,3.334 6.154,4.975c-21.971,28.25 -55.95,45.442 -92.938,45.442Zm578.267,197.237l-37.617,0l0,-130.72c6.205,0.625 12.471,1.045 18.813,1.045c6.35,0 12.621,-0.345 18.804,-0.962l0,130.637Zm190.779,0l-37.637,0l-0,-130.687c6.241,0.642 12.525,1.008 18.833,1.008c6.346,0 12.621,-0.321 18.804,-0.95l0,130.629Zm-18.808,-197.237c-14.458,-0 -28.417,-2.608 -41.517,-7.542c17.063,-23.129 28.9,-50.425 33.704,-80.246c9.317,-3.658 18.509,-7.554 27.525,-11.679c14.963,2.625 30.075,3.954 45.063,3.954c17.733,0 35.062,-1.791 51.812,-5.187c-8.325,56.887 -57.42,100.7 -116.587,100.7Zm268.558,-422.692c-10.683,7.525 -16.071,20.534 -13.825,33.409c1.95,11.204 2.938,22.42 2.938,33.325c-0,106.362 -86.534,192.891 -192.888,192.891c-13.979,0 -28.133,-1.571 -42.083,-4.666c-7.425,-1.65 -15.196,-0.742 -22.046,2.575c-16.35,7.92 -33.508,15.012 -51.004,21.075c-13.167,4.562 -22.179,16.745 -22.692,30.67c-2.35,63.596 -54.066,113.413 -117.737,113.413c-51.054,-0 -96.05,-32.575 -111.967,-81.054c-3.437,-10.463 -11.754,-18.592 -22.287,-21.784c-10.559,-3.195 -21.971,-1.054 -30.638,5.734c-37.179,29.129 -81.804,44.525 -129.046,44.525c-53.191,-0 -103.929,-19.996 -142.866,-56.313c-6.255,-5.833 -14.488,-9.079 -23.038,-9.079l-43.217,0c-4.72,0 -9.391,0.992 -13.704,2.904c-23.554,10.463 -50.55,11.534 -75.096,2.746c-8.958,-3.212 -18.858,-2.496 -27.27,1.988c-8.4,4.47 -14.53,12.291 -16.863,21.516c-13.242,52.288 -60.221,88.813 -114.246,88.813c-64.987,-0 -117.854,-52.867 -117.854,-117.854l0,-53.43c0,-11.208 -5.558,-21.683 -14.846,-27.97c-16.146,-10.93 -31.671,-22.867 -46.133,-35.48c-5.125,-4.462 -11.471,-7.283 -18.221,-8.083c-96.867,-11.483 -169.917,-93.8 -169.917,-191.479c0,-26.1 5.117,-51.396 15.196,-75.196c5.217,-12.304 2.688,-26.521 -6.454,-36.271c-33.629,-35.891 -52.146,-82.708 -52.146,-131.825c0,-57.566 25.446,-111.7 69.821,-148.521c7.625,-6.325 12.088,-15.675 12.204,-25.583c0.196,-15.954 4.021,-31.229 11.384,-45.387c6.662,-12.825 4.433,-28.463 -5.55,-38.913c-9.988,-10.45 -25.5,-13.387 -38.617,-7.317c-6.488,3.009 -13.329,4.534 -20.325,4.534c-27.046,-0 -49.05,-22.004 -49.05,-49.054c-0,-27.046 22.004,-49.05 49.05,-49.05c1.65,-0 3.392,0.095 5.175,0.291c11.329,1.196 22.517,-3.329 29.754,-12.129c6.142,-7.475 15.204,-11.762 24.85,-11.762c10.596,-0 20.517,5.245 26.546,14.033c8.729,12.746 24.992,17.933 39.492,12.625c14.554,-5.333 30.154,-3.467 42.808,4.504c7.708,4.854 17.042,6.388 25.896,4.271c8.858,-2.129 16.475,-7.742 21.137,-15.563c34.65,-58.195 98.184,-94.345 165.8,-94.345c32.025,-0 63.729,8 91.688,23.137c8.887,4.808 19.437,5.396 28.8,1.596c9.354,-3.8 16.516,-11.583 19.529,-21.221c13.267,-42.487 52.117,-71.025 96.671,-71.025c28.358,0 54.658,11.454 74.046,32.242c11.629,12.462 30.704,14.308 44.508,4.325c33.046,-23.925 72.1,-36.567 112.933,-36.567c51.088,0 99.242,19.796 135.592,55.738c6.833,6.754 16.204,10.275 25.8,9.695c9.587,-0.587 18.475,-5.22 24.437,-12.754c19.363,-24.458 48.309,-38.487 79.425,-38.487c28.938,-0 56.563,12.441 75.788,34.141c8.417,9.492 21.442,13.467 33.725,10.3c8.321,-2.145 16.908,-3.237 25.517,-3.237c11.5,-0 22.741,1.983 33.383,5.7c-4.492,15.371 -6.875,31.379 -6.875,47.483c-0,18.659 15.117,33.779 33.775,33.779c18.654,0 33.779,-15.116 33.779,-33.779c0,-16.854 3.988,-32.862 11.846,-47.579c17.675,-33.112 51.937,-53.675 89.417,-53.675c32.362,0 62.012,14.929 81.354,40.967c5.854,7.883 14.85,12.825 24.637,13.541c9.813,0.721 19.417,-2.854 26.354,-9.795c11.867,-11.859 27.625,-18.388 44.375,-18.388c34.592,0 62.734,28.138 62.734,62.729c-0,2.329 -0.125,4.625 -0.375,6.888c-0.109,0.683 -0.2,1.375 -0.267,2.066c-4.358,30.367 -30.542,53.78 -62.096,53.78c-13.679,-0 -26.737,-4.413 -37.762,-12.767c-7.834,-5.942 -17.875,-8.183 -27.475,-6.104c-9.617,2.058 -17.854,8.2 -22.563,16.825c-6.091,11.15 -14.166,20.975 -23.987,29.196c-13.088,10.954 -15.946,29.945 -6.667,44.27c20.238,31.234 30.942,67.442 30.942,104.709c-0,10.121 -0.792,20.266 -2.35,30.162c-3.146,19.946 -9.421,39.221 -18.638,57.296c-7.312,14.346 -3.487,31.854 9.142,41.842c15.187,12.008 23.9,29.929 23.9,49.166c-0,18.659 15.125,33.78 33.779,33.78l6.867,-0c2.233,17.05 3.646,34.266 4.033,51.491c0.204,9.096 4.067,17.734 10.725,23.942c20.775,19.387 32.213,45.679 32.213,74.033c-0.017,32.859 -16.117,63.829 -43.084,82.825Zm189.363,-299.854l-170.771,0c-4.846,-18.125 -13.579,-34.971 -25.671,-49.45c6.921,-17.575 11.904,-35.833 14.854,-54.537c2.113,-13.371 3.179,-27.063 3.179,-40.696c0,-41.059 -9.62,-81.175 -28.012,-117.471l0.171,-0.2c15.087,5.996 31.212,9.092 47.796,9.092c55.658,-0 103.287,-35.092 121.908,-84.309l36.542,0c93.066,0 168.787,75.721 168.787,168.792c0,93.062 -75.712,168.779 -168.783,168.779Z" style="fill-rule:nonzero;"/><path d="M1803.76,302.74c-13.958,-0 -25.275,11.284 -25.275,25.21c0,13.926 11.321,25.206 25.275,25.206c13.975,0 25.288,-11.284 25.288,-25.206c0.004,-13.926 -11.317,-25.21 -25.288,-25.21Z" style="fill-rule:nonzero;"/><path d="M1544.97,325.458c-18.613,-1.301 -34.748,12.724 -36.049,31.341l-7.582,108.419c-1.301,18.613 12.724,34.751 31.337,36.053c18.613,1.301 34.751,-12.724 36.053,-31.341l7.581,-108.419c1.298,-18.613 -12.736,-34.752 -31.34,-36.053Z" style="fill-rule:nonzero;"/></svg>